<?xml version="1.0" standalone="no"?>
<!DOCTYPE svg PUBLIC "-//W3C//DTD SVG 20010904//EN"
 "http://www.w3.org/TR/2001/REC-SVG-20010904/DTD/svg10.dtd">
<svg version="1.0" xmlns="http://www.w3.org/2000/svg"
 width="1086.000000pt" height="1024.000000pt" viewBox="0 0 1086.000000 1024.000000"
 preserveAspectRatio="xMidYMid meet">

<g transform="translate(0.000000,1024.000000) scale(0.100000,-0.100000)"
fill="#000000" stroke="none">
<path d="M3895 9998 c-40 -22 -65 -52 -65 -77 0 -14 13 -54 30 -88 l29 -63
-42 -24 c-23 -14 -73 -39 -112 -57 -97 -44 -105 -53 -105 -110 0 -53 7 -59 78
-62 31 -1 53 8 103 40 77 50 137 79 145 71 3 -4 0 -19 -8 -35 -10 -22 -49 -46
-196 -118 l-183 -90 5 -55 c4 -45 10 -59 33 -77 15 -13 31 -23 35 -23 4 0 44
23 90 50 l83 50 5 -52 c4 -38 16 -69 41 -108 19 -30 48 -79 64 -108 43 -80
100 -100 190 -66 22 8 76 28 120 43 137 48 202 92 219 147 11 37 -21 160 -61
236 -43 82 -23 76 -187 62 -160 -13 -65 35 160 82 71 14 139 32 151 40 27 17
57 70 50 88 -3 7 -32 18 -65 25 -51 10 -72 9 -148 -8 -110 -24 -199 -35 -213
-27 -6 4 3 24 24 51 43 57 49 78 33 112 -15 32 -51 53 -94 53 -24 0 -36 9 -62
45 -43 61 -98 81 -147 53z m290 -690 c26 -12 65 -73 65 -101 0 -15 -78 -53
-129 -63 -28 -6 -31 -3 -60 55 -17 33 -31 63 -31 66 0 8 94 54 112 55 9 0 29
-5 43 -12z"/>
<path d="M6567 9852 c-10 -11 -20 -51 -27 -107 -5 -50 -17 -115 -25 -145 -8
-30 -15 -74 -15 -97 0 -38 4 -45 38 -68 40 -27 331 -145 356 -145 9 0 16 4 16
9 0 5 36 64 80 130 88 134 113 179 128 233 9 34 8 37 -17 47 -14 6 -87 25
-161 41 -103 23 -156 40 -223 75 -95 49 -125 54 -150 27z m264 -219 c21 -8 39
-20 39 -26 0 -17 -64 -96 -83 -103 -11 -3 -39 -3 -63 1 -49 7 -49 7 -37 104
l6 53 50 -6 c27 -4 67 -14 88 -23z"/>
<path d="M7360 9786 c0 -4 -7 -51 -15 -106 -20 -134 -55 -203 -149 -295 -93
-91 -172 -136 -325 -185 -118 -38 -211 -82 -211 -99 0 -4 28 -21 62 -37 51
-24 73 -29 134 -28 69 0 80 4 197 62 185 91 163 96 234 -55 33 -70 68 -151 77
-180 26 -79 55 -114 121 -148 53 -27 68 -30 154 -30 92 0 96 1 99 23 3 17 -16
40 -78 99 -91 86 -135 146 -203 278 -26 50 -62 112 -80 140 l-34 49 43 67 c80
123 154 291 154 349 0 28 -47 67 -98 80 -26 7 -55 14 -64 17 -10 2 -18 2 -18
-1z"/>
<path d="M3131 9684 c-85 -71 20 -208 136 -179 37 9 63 33 63 58 0 42 -108
147 -151 147 -9 0 -31 -12 -48 -26z"/>
<path d="M3207 9446 c-20 -8 -62 -29 -93 -47 l-55 -34 3 -49 c3 -47 4 -50 43
-63 57 -19 90 -8 151 51 50 48 54 56 54 98 0 61 -25 71 -103 44z"/>
<path d="M3470 9194 c-36 -7 -84 -21 -107 -29 -51 -20 -123 -71 -123 -88 0 -6
22 -31 49 -54 43 -37 53 -53 76 -125 15 -46 28 -84 29 -85 1 -1 26 4 56 10
l55 12 5 115 c5 101 9 121 32 163 23 40 25 52 16 72 -6 14 -14 25 -17 24 -3 0
-35 -7 -71 -15z"/>
<path d="M2217 8905 c-87 -46 -227 -201 -298 -331 -39 -71 -87 -124 -113 -124
-6 0 -32 21 -56 46 -66 67 -74 70 -116 38 -43 -33 -68 -78 -60 -109 3 -13 28
-37 56 -55 27 -18 50 -36 50 -40 0 -4 -21 -45 -46 -91 -44 -79 -84 -177 -84
-204 0 -16 64 -24 87 -12 10 5 33 23 50 40 18 17 35 29 37 26 3 -2 10 -44 17
-92 12 -79 11 -97 -6 -175 -10 -48 -20 -108 -23 -134 l-4 -48 34 0 c38 0 90
29 112 62 8 13 23 52 32 88 17 65 16 187 -2 327 l-7 51 44 -9 c61 -14 99 -40
170 -117 44 -47 75 -94 106 -160 52 -110 71 -132 117 -132 30 0 36 4 50 41 20
49 16 76 -25 167 l-29 65 27 46 c15 25 51 70 80 99 63 64 64 63 118 -43 37
-72 39 -74 69 -68 72 12 103 59 92 136 -9 57 -47 97 -185 196 -104 74 -149
118 -196 193 -26 41 -35 48 -62 48 -29 0 -39 -9 -90 -77 -31 -43 -68 -94 -83
-113 -14 -19 -41 -56 -59 -82 -34 -51 -40 -54 -85 -35 l-29 13 67 79 c37 43
96 120 131 170 57 82 95 122 210 222 32 27 36 36 33 70 l-3 38 -50 3 c-30 1
-61 -4 -78 -13z m107 -586 c14 -17 26 -36 26 -43 0 -24 -93 -96 -107 -82 -7 7
38 156 48 156 4 0 19 -14 33 -31z"/>
<path d="M2337 8646 c-15 -32 -15 -35 4 -52 19 -17 19 -16 19 34 0 29 -1 52
-3 52 -2 0 -11 -15 -20 -34z"/>
<path d="M8930 8638 c-15 -28 -24 -59 -24 -91 -1 -48 1 -51 49 -91 97 -80 238
-222 296 -300 33 -43 79 -120 103 -170 51 -110 79 -136 146 -136 53 0 76 18
86 68 8 42 -16 79 -133 205 -117 125 -156 180 -148 207 4 12 29 46 56 77 58
66 59 87 10 120 -57 39 -103 29 -173 -35 -14 -13 -31 -21 -37 -17 -6 3 -37 39
-68 78 -63 79 -112 127 -128 127 -6 0 -22 -19 -35 -42z"/>
<path d="M8535 8593 c-23 -60 -10 -88 76 -165 38 -33 71 -69 75 -80 4 -14 -7
-32 -40 -68 -27 -29 -46 -59 -46 -72 0 -40 48 -97 138 -162 l86 -64 67 29 c37
16 70 29 73 29 12 0 4 -19 -35 -84 -26 -44 -37 -71 -31 -79 5 -7 35 -46 67
-87 33 -41 59 -76 60 -77 0 -1 33 2 74 8 l73 9 51 -46 c28 -25 86 -64 129 -85
l78 -39 10 25 c21 55 6 89 -81 180 -36 38 -38 42 -29 80 5 22 10 60 10 84 l0
44 -63 -6 c-34 -3 -70 -9 -81 -13 -15 -6 -14 0 9 46 24 48 26 57 16 92 -14 44
-18 45 -101 19 l-62 -20 7 91 7 90 -90 -4 c-50 -1 -93 0 -96 2 -3 3 1 31 10
62 13 51 13 61 -2 97 -9 23 -19 41 -22 41 -3 0 -30 -8 -60 -17 l-54 -17 -37
41 c-20 23 -57 66 -83 96 -64 74 -81 77 -103 20z m279 -417 c21 -32 20 -36 -3
-36 -39 0 -51 11 -51 46 0 31 2 34 19 25 10 -6 26 -21 35 -35z m277 -310 c-16
-19 -41 -10 -41 14 0 24 21 31 39 14 11 -10 12 -16 2 -28z"/>
<path d="M8193 8292 c9 -116 30 -140 155 -183 62 -22 123 -24 187 -8 34 9 42
15 38 28 -16 44 -58 82 -135 121 -46 23 -104 55 -130 71 -25 17 -63 33 -84 36
l-37 6 6 -71z"/>
<path d="M7035 8240 c-82 -28 -224 -71 -315 -96 -317 -88 -330 -93 -330 -118
0 -20 18 -30 148 -81 170 -68 273 -119 462 -229 396 -231 685 -486 974 -859
117 -150 305 -475 361 -622 210 -550 280 -1003 230 -1505 -30 -310 -64 -464
-168 -781 -87 -261 -177 -458 -290 -633 -36 -56 -46 -65 -51 -50 -10 32 -26
252 -26 361 0 113 -4 133 -29 133 -13 0 -27 -24 -50 -88 -44 -115 -186 -409
-252 -519 -75 -126 -177 -275 -256 -373 -174 -217 -450 -462 -683 -607 -63
-39 -125 -82 -138 -96 l-23 -24 32 -7 c53 -10 91 -7 286 24 256 41 296 51 543
132 253 84 398 154 640 310 182 118 373 277 505 422 79 87 165 201 165 219 0
15 -85 0 -207 -37 -62 -19 -128 -38 -148 -42 -35 -6 -35 -6 -25 20 17 47 42
90 100 176 72 107 272 522 339 702 89 239 165 555 197 816 21 178 30 618 15
757 -18 167 -68 468 -95 580 -114 467 -327 881 -662 1290 -245 299 -477 511
-769 703 -220 145 -268 172 -304 172 -14 -1 -93 -23 -176 -50z"/>
<path d="M8463 7953 c-146 -4 -146 -4 -119 -66 22 -52 56 -76 132 -92 38 -8
85 -15 104 -15 19 0 40 -4 46 -8 6 -4 14 -43 16 -88 6 -85 33 -156 63 -168 35
-13 64 -6 83 22 53 74 52 196 -3 311 -48 100 -62 111 -132 109 -32 -1 -118 -4
-190 -5z"/>
<path d="M5050 7784 c-327 -45 -678 -163 -963 -326 -475 -272 -846 -664 -1086
-1148 -138 -279 -213 -520 -263 -850 -18 -117 -17 -586 1 -705 48 -321 134
-599 267 -860 403 -797 1155 -1332 2049 -1461 170 -25 489 -25 608 -1 543 110
952 511 1073 1052 24 109 30 360 10 482 -89 566 -534 1021 -1094 1118 -48 9
-163 19 -257 24 -307 17 -503 77 -727 227 -305 203 -515 521 -583 884 -26 138
-25 362 4 497 114 541 517 951 1051 1067 83 18 44 18 -90 0z m543 -3641 c255
-120 325 -447 140 -662 -84 -98 -196 -145 -336 -139 -79 3 -102 8 -160 35
-345 164 -318 649 44 784 43 15 74 19 149 16 82 -2 104 -7 163 -34z"/>
<path d="M8883 7646 c-27 -24 -28 -27 -26 -120 3 -113 16 -148 78 -205 39 -36
119 -71 162 -71 20 0 16 24 -31 190 -25 85 -48 172 -51 193 -7 37 -8 37 -56
37 -36 0 -55 -6 -76 -24z"/>
<path d="M1250 6851 c-21 -20 -38 -58 -61 -132 l-31 -104 -42 3 c-22 1 -99 -1
-169 -5 l-129 -8 -23 -55 c-13 -30 -28 -56 -34 -58 -6 -2 -34 2 -62 8 -45 11
-50 15 -45 34 3 11 6 26 6 32 0 6 34 25 75 43 87 39 136 87 160 162 19 57 16
64 -26 73 -24 5 -44 -1 -84 -24 -38 -21 -66 -30 -99 -30 -63 0 -79 -19 -116
-142 -42 -139 -76 -228 -122 -321 l-38 -77 39 -50 c32 -41 41 -61 46 -107 3
-32 8 -77 11 -101 l5 -43 41 3 c40 3 42 5 59 53 23 67 23 133 -1 241 -11 49
-20 92 -20 97 0 4 36 7 80 7 48 0 80 -4 80 -10 0 -6 -14 -60 -31 -121 -16 -60
-29 -122 -27 -137 4 -34 32 -48 129 -63 100 -15 129 -29 196 -91 69 -65 116
-137 159 -243 l33 -80 45 -3 44 -3 12 53 c11 49 10 58 -13 115 -35 87 -90 166
-174 252 -40 41 -73 75 -73 76 0 1 18 15 41 29 49 33 80 94 109 217 50 207
110 379 133 379 29 0 171 -105 162 -120 -2 -4 -28 -11 -57 -14 -29 -4 -58 -10
-63 -14 -18 -12 -66 -198 -59 -226 20 -81 160 -113 230 -53 l25 22 -40 54
c-23 30 -41 58 -41 62 0 3 13 12 29 19 46 19 68 50 95 134 l25 79 -20 29 c-31
44 -126 116 -201 154 -86 43 -129 45 -168 5z m-324 -433 c-4 -24 -15 -61 -26
-83 l-18 -40 -1 55 c-1 39 5 65 20 89 25 41 33 35 25 -21z m174 -22 c9 -29 7
-44 -20 -112 -17 -44 -43 -99 -58 -124 -24 -40 -27 -42 -30 -22 -9 61 66 311
89 297 4 -3 13 -20 19 -39z"/>
<path d="M5311 6864 c-120 -32 -221 -117 -278 -232 -26 -52 -28 -66 -28 -172
0 -109 2 -118 32 -181 41 -83 120 -159 210 -202 62 -29 76 -32 168 -32 94 0
104 2 175 36 173 84 264 252 238 441 -11 84 -47 158 -108 222 -108 114 -263
160 -409 120z"/>
<path d="M10018 6805 c-108 -44 -362 -108 -553 -139 -49 -8 -102 -19 -116 -25
-30 -11 -99 -68 -99 -81 0 -5 25 -23 55 -40 30 -17 55 -32 55 -33 0 -1 -9 -47
-19 -102 -22 -113 -20 -119 46 -150 46 -22 103 -15 243 30 58 19 148 45 201
59 53 13 131 40 173 59 l76 36 0 50 c0 28 2 51 6 51 3 0 21 -11 41 -24 37 -25
50 -25 93 6 l23 17 -33 65 c-30 60 -32 71 -26 128 5 57 4 67 -19 101 -14 20
-29 37 -33 37 -4 -1 -55 -21 -114 -45z m-114 -241 c13 -34 7 -44 -29 -44 -30
0 -35 3 -35 23 0 13 3 27 7 30 12 13 51 7 57 -9z m-188 -75 c-3 -17 -6 -41 -6
-53 -1 -17 -6 -13 -25 19 -33 53 -32 65 6 65 30 0 31 -2 25 -31z m-208 -36 c2
-18 -1 -33 -7 -33 -27 0 -41 14 -41 42 0 25 4 29 23 26 17 -2 23 -11 25 -35z"/>
<path d="M10225 6255 c-160 -34 -242 -63 -282 -101 -34 -32 -34 -34 -28 -88 5
-36 4 -56 -3 -56 -6 0 -35 -20 -65 -45 -60 -49 -67 -51 -112 -31 l-29 12 49
34 c118 78 142 128 91 186 l-23 28 -99 -17 c-54 -9 -145 -22 -200 -27 -164
-17 -204 -36 -204 -95 0 -25 13 -46 61 -99 57 -61 146 -126 176 -126 8 0 6 17
-8 57 -10 31 -19 60 -19 65 0 5 23 8 51 6 l52 -3 29 -83 29 -84 -39 -52 c-84
-111 -104 -183 -78 -285 18 -72 47 -132 79 -162 22 -21 86 -53 92 -47 2 2 -5
42 -15 88 -23 102 -25 188 -5 236 8 19 36 62 62 94 36 44 55 59 74 59 39 1
126 -17 162 -33 59 -27 111 -36 238 -43 119 -6 129 -5 163 16 55 35 76 71 76
133 0 51 -39 200 -75 283 -13 31 -15 56 -10 112 6 65 5 72 -14 82 -27 15 -49
13 -176 -14z m90 -187 c2 -2 16 -54 32 -115 l30 -113 -29 0 c-19 0 -30 6 -34
18 -3 9 -22 61 -43 114 -22 53 -36 100 -32 103 5 6 70 0 76 -7z m-182 -82 c14
-29 32 -76 40 -104 15 -49 15 -50 -6 -56 -40 -11 -45 -6 -51 49 -3 30 -9 80
-12 110 -4 30 -4 55 -1 55 2 0 16 -24 30 -54z m-158 -106 c9 -15 -14 -40 -31
-33 -22 8 -18 43 5 43 11 0 23 -5 26 -10z"/>
<path d="M1323 6209 c-6 -8 -18 -37 -27 -64 -9 -28 -27 -67 -41 -87 -14 -20
-25 -49 -25 -64 0 -39 96 -204 119 -204 33 0 46 155 18 222 l-15 36 51 7 c102
14 149 53 105 87 -92 72 -161 96 -185 67z"/>
<path d="M663 4721 c7 -200 2 -256 -35 -341 l-20 -45 -19 37 c-10 20 -28 72
-39 115 -12 43 -29 99 -37 125 -16 45 -19 48 -61 54 -50 8 -61 0 -68 -48 -5
-25 5 -69 35 -161 23 -69 41 -135 41 -145 0 -10 -18 -33 -40 -51 -38 -30 -40
-35 -40 -86 l0 -54 38 -6 c70 -12 119 -34 131 -62 6 -14 21 -64 32 -110 25
-108 30 -117 80 -137 47 -19 52 -16 68 42 6 21 6 54 0 90 -6 31 -13 74 -16 95
l-6 39 73 -37 c41 -21 99 -61 129 -89 69 -65 110 -96 125 -96 19 0 46 67 46
115 0 70 -28 95 -257 230 -46 27 -83 55 -83 63 0 7 9 49 20 92 46 181 48 374
4 467 -22 46 -72 93 -99 93 -5 0 -5 -85 -2 -189z"/>
<path d="M9712 4851 c-18 -57 -14 -130 8 -179 29 -63 138 -223 235 -345 l86
-107 -32 -27 c-46 -39 -57 -76 -65 -212 -6 -110 -9 -121 -26 -121 -24 0 -59
18 -75 39 -16 20 -16 126 -2 245 9 73 9 105 0 142 -21 84 -32 86 -114 22 -33
-26 -42 -29 -80 -22 -129 22 -175 -22 -106 -101 18 -20 30 -37 28 -38 -2 -1
-21 -10 -41 -20 -35 -15 -38 -20 -38 -56 0 -38 2 -41 60 -72 l59 -33 -23 -31
c-46 -60 -48 -70 -25 -110 l21 -35 65 6 c73 8 83 2 83 -55 l0 -34 -102 5 c-57
3 -110 9 -119 12 -12 5 -18 26 -22 73 -4 36 -9 68 -11 70 -10 10 -77 -31 -106
-63 -41 -48 -42 -110 -2 -155 27 -30 39 -34 218 -70 214 -43 239 -46 248 -23
3 9 6 51 6 95 0 43 3 79 6 79 3 0 48 -16 100 -35 124 -47 131 -46 140 10 l6
45 74 0 74 0 0 133 0 132 67 -69 66 -69 24 27 c38 45 27 107 -34 180 l-24 29
65 17 c36 9 68 19 72 22 13 13 -10 52 -68 116 -36 39 -77 101 -103 152 -47 93
-89 150 -110 150 -22 0 -74 -71 -97 -132 -11 -32 -24 -58 -28 -58 -11 0 -81
78 -116 130 -50 72 -80 139 -99 220 -20 88 -35 114 -78 140 -45 28 -52 25 -65
-19z m488 -546 c0 -8 -7 -15 -15 -15 -8 0 -15 7 -15 15 0 8 7 15 15 15 8 0 15
-7 15 -15z m-487 -152 c3 -5 8 -53 12 -107 l8 -99 -29 7 c-42 11 -46 18 -33
67 11 39 10 49 -10 86 -11 23 -21 45 -21 48 0 8 68 6 73 -2z m387 -177 c0 -66
-2 -77 -14 -67 -23 19 -28 59 -15 119 15 74 29 50 29 -52z"/>
<path d="M1193 4670 c-17 -10 -36 -28 -42 -38 -11 -21 -41 -35 -111 -52 -103
-26 -111 -53 -84 -277 l18 -153 48 0 c45 0 49 -2 67 -38 29 -57 46 -68 79 -53
55 26 254 154 259 168 3 8 -6 44 -20 81 -14 37 -35 101 -47 142 -61 210 -75
240 -114 240 -12 0 -35 -9 -53 -20z m41 -255 c10 -24 16 -59 14 -77 -3 -28
-10 -36 -50 -56 -26 -13 -51 -21 -56 -18 -5 3 -12 29 -16 58 -4 29 -9 67 -12
84 -5 30 -3 32 33 42 64 17 69 15 87 -33z"/>
<path d="M9510 4540 c0 -48 20 -92 64 -138 39 -42 68 -54 101 -42 83 32 25
153 -98 205 -58 24 -67 21 -67 -25z"/>
<path d="M1386 3767 c-47 -20 -49 -20 -136 -2 -91 18 -140 15 -140 -9 0 -28
149 -296 164 -296 2 0 45 41 96 90 55 55 95 102 100 121 11 38 3 83 -19 102
-14 12 -22 12 -65 -6z"/>
<path d="M770 3657 c-64 -107 -90 -164 -90 -197 0 -35 33 -120 46 -120 22 0
95 55 113 84 33 52 39 150 13 208 -11 26 -29 51 -39 56 -16 9 -22 4 -43 -31z"/>
<path d="M937 3688 c-24 -18 -33 -103 -17 -167 6 -28 25 -69 41 -91 24 -33 35
-40 63 -40 25 0 40 7 55 26 37 47 23 101 -56 217 -48 69 -58 76 -86 55z"/>
<path d="M1745 2928 c17 -191 47 -330 84 -387 14 -22 96 30 110 70 22 64 14
139 -24 218 -50 103 -71 130 -122 152 -25 10 -47 19 -49 19 -3 0 -2 -33 1 -72z"/>
<path d="M1480 2852 c0 -17 38 -116 84 -222 l46 -105 -80 -75 -81 -75 31 -37
c42 -51 85 -50 145 2 11 10 32 25 46 34 26 17 27 16 47 -17 l20 -34 -100 -46
c-96 -44 -99 -47 -87 -69 6 -13 32 -44 57 -70 48 -50 45 -56 -20 -38 -42 12
-87 62 -138 153 -32 58 -55 79 -96 91 -23 7 -23 7 -44 -99 -10 -48 5 -77 74
-145 l46 -44 -47 -48 -47 -47 20 -37 c26 -49 50 -56 120 -38 31 8 60 16 63 19
4 2 47 -41 96 -96 49 -54 92 -99 96 -99 11 0 69 69 69 83 0 15 -61 107 -112
168 -21 26 -38 49 -38 51 0 2 18 2 40 0 31 -3 53 3 103 32 36 19 76 40 91 45
24 10 26 9 26 -17 -1 -22 -9 -31 -50 -50 -79 -37 -86 -107 -17 -170 l25 -24
39 34 c21 19 54 46 73 61 l36 26 63 -55 c149 -130 281 -144 281 -30 0 38 -29
68 -135 141 -134 92 -176 128 -279 241 -103 113 -104 115 -139 218 -59 179
-199 359 -304 391 -13 3 -23 2 -23 -3z m281 -659 c-13 -25 -61 -69 -61 -56 0
9 59 73 67 73 2 0 -1 -8 -6 -17z"/>
<path d="M8703 2632 c-6 -4 -17 -28 -23 -53 -10 -40 -9 -57 9 -120 l20 -73
-57 -94 c-31 -52 -62 -96 -69 -99 -7 -3 -37 9 -68 27 -59 34 -60 37 -34 108 5
13 9 25 9 28 0 2 -35 4 -79 4 -87 0 -131 -20 -161 -73 -14 -25 -13 -30 5 -65
16 -30 36 -45 107 -79 78 -38 97 -54 195 -158 114 -123 178 -171 213 -160 11
4 44 41 72 83 89 132 136 190 208 249 99 81 98 91 -31 178 -109 74 -156 124
-216 235 -31 58 -42 70 -63 70 -14 0 -30 -4 -37 -8z m22 -502 c-14 -27 -55
-60 -55 -44 0 12 51 74 61 74 5 0 3 -13 -6 -30z m75 -81 c-21 -29 -23 -30 -42
-12 -19 17 -19 18 14 29 49 18 51 17 28 -17z"/>
<path d="M2031 2605 c-87 -27 -143 -115 -108 -169 9 -13 36 -33 62 -45 l47
-22 -7 -64 -7 -64 38 -10 c22 -5 51 -13 66 -16 23 -6 29 -15 38 -61 14 -64 27
-74 107 -74 58 0 198 -21 262 -40 19 -5 37 -8 39 -5 8 8 -39 89 -71 123 -59
62 -100 77 -213 77 l-102 0 23 45 c55 108 50 157 -16 176 -28 8 -35 16 -42 49
-24 107 -27 115 -50 114 -12 0 -42 -6 -66 -14z"/>
<path d="M9185 2338 c-23 -114 -206 -395 -325 -498 -84 -73 -86 -79 -50 -136
16 -27 30 -58 30 -70 0 -31 -39 -59 -118 -85 -37 -12 -68 -22 -69 -23 -9 -7
24 -83 49 -111 46 -53 67 -48 151 40 40 41 76 75 80 75 3 0 22 -25 42 -55 19
-30 39 -55 45 -55 51 0 132 66 207 168 30 40 104 128 165 195 158 174 190 218
199 279 5 29 7 54 5 56 -2 2 -32 -4 -65 -14 -53 -14 -69 -25 -125 -84 -35 -37
-109 -135 -165 -218 -57 -83 -109 -156 -117 -163 -11 -9 -18 -6 -34 12 -10 13
-19 28 -20 32 0 15 80 127 181 252 54 67 123 162 154 210 49 79 55 94 55 143
l0 55 -37 -6 c-21 -4 -56 -19 -77 -34 l-40 -28 -47 47 c-27 27 -52 48 -58 48
-5 0 -12 -15 -16 -32z"/>
<path d="M3136 1514 c-47 -26 -31 -64 69 -161 66 -63 92 -97 114 -145 29 -65
102 -281 104 -308 0 -8 -21 -45 -46 -82 -54 -75 -77 -133 -77 -190 0 -78 41
-115 112 -101 43 8 65 42 83 128 22 102 44 144 97 190 65 56 193 131 272 161
121 45 186 76 186 89 0 7 -12 25 -26 40 -24 26 -29 27 -93 22 -45 -4 -113 -23
-211 -58 -105 -39 -145 -50 -148 -40 -2 7 -35 75 -73 151 -98 195 -216 321
-300 320 -19 -1 -47 -8 -63 -16z"/>
<path d="M7574 1453 c-68 -13 -79 -109 -26 -237 18 -44 31 -85 28 -93 -3 -7
-18 -13 -33 -13 -84 0 -153 -46 -153 -100 0 -38 17 -72 68 -134 21 -26 63 -91
92 -144 67 -121 120 -202 133 -202 5 0 35 22 66 48 31 26 76 63 101 82 25 19
48 39 53 45 14 19 -3 66 -52 149 -27 44 -60 104 -74 131 -37 75 -107 295 -141
448 -6 27 -14 30 -62 20z m66 -452 c14 -27 13 -64 -3 -85 -12 -16 -15 -14 -41
25 l-29 43 23 18 c28 23 37 23 50 -1z m120 -246 c0 -20 -6 -25 -35 -31 -48 -9
-56 3 -22 32 36 31 57 31 57 -1z"/>
<path d="M7152 1425 c-54 -25 -113 -64 -171 -113 -49 -41 -38 -67 39 -89 l58
-16 4 -122 c2 -84 7 -127 17 -138 15 -19 64 -22 108 -7 l30 11 5 222 c5 228 2
270 -23 275 -8 1 -38 -9 -67 -23z"/>
<path d="M6929 1075 l-41 -64 -51 21 c-177 72 -205 74 -316 17 -86 -45 -244
-164 -248 -189 -2 -8 1 -21 6 -29 8 -12 20 -11 83 7 112 33 201 45 298 40 100
-5 113 -12 155 -84 25 -43 27 -44 75 -44 28 0 50 -3 50 -7 -1 -5 -34 -30 -75
-56 l-75 -48 0 -48 c0 -60 42 -209 78 -275 36 -66 71 -81 154 -66 65 12 95 25
191 83 32 20 92 48 133 63 41 14 74 32 74 39 0 19 -121 309 -137 326 -8 9 -40
26 -72 38 -44 16 -72 36 -120 86 l-62 64 7 78 c10 117 11 113 -31 113 -33 0
-39 -5 -76 -65z m201 -457 c-36 -31 -145 -88 -167 -88 -7 0 -13 8 -13 18 0 32
186 125 210 104 3 -2 -11 -17 -30 -34z m109 -127 c16 -11 -45 -44 -148 -82
-62 -22 -64 -22 -77 -4 -23 31 -17 39 54 67 67 27 145 35 171 19z"/>
<path d="M3890 883 c-28 -10 -52 -37 -105 -118 -68 -102 -79 -128 -71 -159 8
-34 47 -59 145 -91 47 -15 111 -47 147 -71 91 -62 125 -57 171 28 15 28 18 53
16 158 -4 158 -6 161 -139 211 -112 41 -143 49 -164 42z m150 -234 c0 -48 -1
-51 -22 -45 -13 3 -39 6 -58 6 -46 0 -57 9 -61 45 -5 34 14 42 94 44 l47 1 0
-51z"/>
</g>
</svg>
